<svg width="100%" viewBox="0 0 680 360" xmlns="http://www.w3.org/2000/svg" style="font-family: system-ui, -apple-system, sans-serif;">

  <!-- Left side: Centralized -->
  <text x="170" y="30" text-anchor="middle" font-size="15" font-weight="bold" fill="#2C2C2A">Centraliserat system</text>
  <text x="170" y="48" text-anchor="middle" font-size="12" fill="#888780">Enskilda felkällor</text>

  <!-- Retail boxes -->
  <rect x="70" y="70" width="60" height="34" rx="6" fill="#FAECE7" stroke="#993C1D" stroke-width="1"/>
  <text x="100" y="91" text-anchor="middle" font-size="13" font-weight="bold" fill="#712B13">ICA</text>
  <rect x="140" y="70" width="60" height="34" rx="6" fill="#FAECE7" stroke="#993C1D" stroke-width="1"/>
  <text x="170" y="91" text-anchor="middle" font-size="13" font-weight="bold" fill="#712B13">Coop</text>
  <rect x="210" y="70" width="60" height="34" rx="6" fill="#FAECE7" stroke="#993C1D" stroke-width="1"/>
  <text x="240" y="91" text-anchor="middle" font-size="13" font-weight="bold" fill="#712B13">Axfood</text>

  <!-- Central processing -->
  <rect x="115" y="135" width="110" height="30" rx="6" fill="#F1EFE8" stroke="#B4B2A9" stroke-width="1"/>
  <text x="170" y="155" text-anchor="middle" font-size="12" fill="#5F5E5A">Central förädling</text>

  <!-- Large farms -->
  <rect x="95" y="200" width="70" height="30" rx="6" fill="#F1EFE8" stroke="#B4B2A9" stroke-width="1"/>
  <text x="130" y="219" text-anchor="middle" font-size="12" fill="#5F5E5A">Storgård</text>
  <rect x="175" y="200" width="70" height="30" rx="6" fill="#F1EFE8" stroke="#B4B2A9" stroke-width="1"/>
  <text x="210" y="219" text-anchor="middle" font-size="12" fill="#5F5E5A">Storgård</text>

  <!-- Small farms (dots) -->
  <circle cx="85" cy="275" r="3" fill="#B4B2A9"/><circle cx="101" cy="275" r="3" fill="#B4B2A9"/>
  <circle cx="117" cy="275" r="3" fill="#B4B2A9"/><circle cx="133" cy="275" r="3" fill="#B4B2A9"/>
  <circle cx="149" cy="275" r="3" fill="#B4B2A9"/><circle cx="165" cy="275" r="3" fill="#B4B2A9"/>
  <circle cx="181" cy="275" r="3" fill="#B4B2A9"/><circle cx="197" cy="275" r="3" fill="#B4B2A9"/>
  <circle cx="213" cy="275" r="3" fill="#B4B2A9"/><circle cx="229" cy="275" r="3" fill="#B4B2A9"/>
  <circle cx="245" cy="275" r="3" fill="#B4B2A9"/><circle cx="261" cy="275" r="3" fill="#B4B2A9"/>

  <!-- Connecting lines -->
  <line x1="100" y1="104" x2="145" y2="135" stroke="#B4B2A9" stroke-width="1"/>
  <line x1="170" y1="104" x2="170" y2="135" stroke="#B4B2A9" stroke-width="1"/>
  <line x1="240" y1="104" x2="195" y2="135" stroke="#B4B2A9" stroke-width="1"/>
  <line x1="145" y1="165" x2="130" y2="200" stroke="#B4B2A9" stroke-width="1"/>
  <line x1="195" y1="165" x2="210" y2="200" stroke="#B4B2A9" stroke-width="1"/>
  <line x1="130" y1="230" x2="140" y2="272" stroke="#B4B2A9" stroke-width="1"/>
  <line x1="210" y1="230" x2="200" y2="272" stroke="#B4B2A9" stroke-width="1"/>

  <!-- Fragility labels -->
  <text x="170" y="310" text-anchor="middle" font-size="13" fill="#E24B4A">✕ 3 dagars lager</text>
  <text x="170" y="326" text-anchor="middle" font-size="12" fill="#E24B4A">✕ flaskhalsar · importberoende</text>

  <!-- Divider line -->
  <line x1="340" y1="20" x2="340" y2="340" stroke="#D3D1C7" stroke-width="1" stroke-dasharray="6,4"/>

  <!-- Right side: Distributed -->
  <text x="510" y="30" text-anchor="middle" font-size="15" font-weight="bold" fill="#2C2C2A">Distribuerat system</text>
  <text x="510" y="48" text-anchor="middle" font-size="12" fill="#888780">Erforderlig variation</text>

  <!-- Nodes -->
  <rect x="380" y="75" width="45" height="28" rx="6" fill="#E1F5EE" stroke="#0F6E56" stroke-width="1"/>
  <text x="403" y="93" text-anchor="middle" font-size="11" fill="#085041">Nod</text>
  <rect x="455" y="70" width="45" height="28" rx="6" fill="#E1F5EE" stroke="#0F6E56" stroke-width="1"/>
  <text x="478" y="88" text-anchor="middle" font-size="11" fill="#085041">Nod</text>
  <rect x="540" y="80" width="45" height="28" rx="6" fill="#E1F5EE" stroke="#0F6E56" stroke-width="1"/>
  <text x="563" y="98" text-anchor="middle" font-size="11" fill="#085041">Nod</text>

  <rect x="390" y="140" width="45" height="28" rx="6" fill="#E1F5EE" stroke="#0F6E56" stroke-width="1"/>
  <text x="413" y="158" text-anchor="middle" font-size="11" fill="#085041">Nod</text>
  <rect x="470" y="135" width="45" height="28" rx="6" fill="#E1F5EE" stroke="#0F6E56" stroke-width="1"/>
  <text x="493" y="153" text-anchor="middle" font-size="11" fill="#085041">Nod</text>
  <rect x="550" y="145" width="45" height="28" rx="6" fill="#E1F5EE" stroke="#0F6E56" stroke-width="1"/>
  <text x="573" y="163" text-anchor="middle" font-size="11" fill="#085041">Nod</text>

  <!-- Small farm rectangles -->
  <rect x="395" y="210" width="18" height="14" rx="3" fill="#EAF3DE" stroke="#3B6D11" stroke-width="1"/>
  <rect x="425" y="210" width="18" height="14" rx="3" fill="#EAF3DE" stroke="#3B6D11" stroke-width="1"/>
  <rect x="462" y="206" width="18" height="14" rx="3" fill="#EAF3DE" stroke="#3B6D11" stroke-width="1"/>
  <rect x="498" y="208" width="18" height="14" rx="3" fill="#EAF3DE" stroke="#3B6D11" stroke-width="1"/>
  <rect x="535" y="212" width="18" height="14" rx="3" fill="#EAF3DE" stroke="#3B6D11" stroke-width="1"/>
  <rect x="568" y="208" width="18" height="14" rx="3" fill="#EAF3DE" stroke="#3B6D11" stroke-width="1"/>
  <rect x="412" y="232" width="18" height="14" rx="3" fill="#EAF3DE" stroke="#3B6D11" stroke-width="1"/>
  <rect x="482" y="230" width="18" height="14" rx="3" fill="#EAF3DE" stroke="#3B6D11" stroke-width="1"/>
  <rect x="552" y="232" width="18" height="14" rx="3" fill="#EAF3DE" stroke="#3B6D11" stroke-width="1"/>

  <!-- Connecting lines (simplified) -->
  <line x1="403" y1="103" x2="413" y2="140" stroke="#9FE1CB" stroke-width="1"/>
  <line x1="478" y1="98" x2="493" y2="135" stroke="#9FE1CB" stroke-width="1"/>
  <line x1="563" y1="108" x2="573" y2="145" stroke="#9FE1CB" stroke-width="1"/>
  <line x1="413" y1="168" x2="407" y2="210" stroke="#9FE1CB" stroke-width="1"/>
  <line x1="493" y1="163" x2="480" y2="206" stroke="#9FE1CB" stroke-width="1"/>
  <line x1="573" y1="173" x2="560" y2="212" stroke="#9FE1CB" stroke-width="1"/>

  <!-- Small circles (consumers) -->
  <circle cx="400" cy="275" r="3" fill="#9FE1CB"/><circle cx="420" cy="278" r="3" fill="#9FE1CB"/>
  <circle cx="445" cy="274" r="3" fill="#9FE1CB"/><circle cx="470" cy="277" r="3" fill="#9FE1CB"/>
  <circle cx="495" cy="275" r="3" fill="#9FE1CB"/><circle cx="520" cy="278" r="3" fill="#9FE1CB"/>
  <circle cx="545" cy="274" r="3" fill="#9FE1CB"/><circle cx="570" cy="277" r="3" fill="#9FE1CB"/>
  <circle cx="595" cy="275" r="3" fill="#9FE1CB"/><circle cx="615" cy="278" r="3" fill="#9FE1CB"/>
  <circle cx="385" cy="278" r="3" fill="#9FE1CB"/><circle cx="635" cy="276" r="3" fill="#9FE1CB"/>

  <!-- Resilience labels -->
  <text x="510" y="310" text-anchor="middle" font-size="13" fill="#1D9E75">✓ Redundans · mångfald</text>
  <text x="510" y="326" text-anchor="middle" font-size="12" fill="#1D9E75">✓ Lokal anpassning</text>
</svg>

